<?xml version="1.0" encoding="UTF-8"?>
<svg version="1.1" xmlns="http://www.w3.org/2000/svg" width="303" height="205">
<path d="M0 0 C3.5625 0.25 3.5625 0.25 6.5625 2.25 C7.29296875 4.4140625 7.29296875 4.4140625 7.75 6.875 C7.90855469 7.69226562 8.06710938 8.50953125 8.23046875 9.3515625 C8.39482422 10.29128906 8.39482422 10.29128906 8.5625 11.25 C9.72072266 11.24476318 10.87894531 11.23952637 12.07226562 11.23413086 C16.44839681 11.21576807 20.82452473 11.20445603 25.20068359 11.19506836 C27.07992123 11.19009853 28.95915512 11.18332034 30.83837891 11.17456055 C70.18654737 10.99599171 70.18654737 10.99599171 80.703125 19.3671875 C86.90067255 25.64285539 89.70509255 32.6273998 89.75 41.3125 C89.76417969 42.56160156 89.77835938 43.81070313 89.79296875 45.09765625 C89.5625 48.25 89.5625 48.25 87.5625 50.25 C85.25 50.55078125 85.25 50.55078125 82.5625 50.5625 C81.675625 50.57925781 80.78875 50.59601563 79.875 50.61328125 C79.111875 50.49339844 78.34875 50.37351563 77.5625 50.25 C75.1330484 46.6058226 75.40070425 44.53758728 75.5625 40.25 C74.82858032 40.24413376 74.09466064 40.23826752 73.33850098 40.23222351 C66.3947761 40.17412644 59.45132195 40.10195318 52.50791168 40.01428509 C48.93889154 39.96971034 45.36998214 39.93042676 41.80078125 39.90356445 C38.35110138 39.87740149 34.90185072 39.8369099 31.45243835 39.78681374 C29.50733186 39.76220684 27.56205885 39.75213393 25.61682129 39.74235535 C16.52890751 39.59252902 9.46071101 38.73013761 2.5625 32.25 C2.0675 31.26 2.0675 31.26 1.5625 30.25 C0.9025 30.25 0.2425 30.25 -0.4375 30.25 C-1.200625 31.013125 -1.96375 31.77625 -2.75 32.5625 C-8.22349253 38.03599253 -12.85167567 39.34432611 -20.39941406 39.45532227 C-21.60035706 39.47526749 -22.80130005 39.49521271 -24.03863525 39.51576233 C-25.33041687 39.53247482 -26.62219849 39.54918732 -27.953125 39.56640625 C-29.29262921 39.58698963 -30.63212713 39.60798646 -31.97161865 39.62937927 C-35.48965341 39.68445709 -39.0077454 39.73392906 -42.52587891 39.78222656 C-46.11886664 39.83254625 -49.71177173 39.88817756 -53.3046875 39.94335938 C-60.34888655 40.050766 -67.3931598 40.15224949 -74.4375 40.25 C-74.55281128 55.95362179 -74.43840639 71.57509099 -73.4375 87.25 C-72.7330777 87.25364563 -72.0286554 87.25729126 -71.30288696 87.26104736 C-64.62460706 87.29910637 -57.94678099 87.35615924 -51.26883888 87.43390274 C-47.83659741 87.47320773 -44.40460595 87.50547819 -40.97216797 87.52099609 C-37.01497309 87.53920838 -33.05847063 87.58923374 -29.1015625 87.640625 C-27.88449615 87.64185364 -26.66742981 87.64308228 -25.41348267 87.64434814 C-16.98922203 87.78749529 -8.61364022 88.69566865 -2.4375 95 C-1.7775 95.7425 -1.1175 96.485 -0.4375 97.25 C0.2225 97.25 0.8825 97.25 1.5625 97.25 C2.325625 96.486875 3.08875 95.72375 3.875 94.9375 C9.34849253 89.46400747 13.97667567 88.15567389 21.52441406 88.04467773 C22.72535706 88.02473251 23.92630005 88.00478729 25.16363525 87.98423767 C26.45541687 87.96752518 27.74719849 87.95081268 29.078125 87.93359375 C30.41762921 87.91301037 31.75712713 87.89201354 33.09661865 87.87062073 C36.61465341 87.81554291 40.1327454 87.76607094 43.65087891 87.71777344 C47.24386664 87.66745375 50.83677173 87.61182244 54.4296875 87.55664062 C61.47388655 87.449234 68.5181598 87.34775051 75.5625 87.25 C75.62308594 86.61191406 75.68367187 85.97382812 75.74609375 85.31640625 C75.82988281 84.49011719 75.91367188 83.66382812 76 82.8125 C76.08121094 81.98878906 76.16242188 81.16507812 76.24609375 80.31640625 C76.5625 78.25 76.5625 78.25 77.5625 77.25 C79.77734375 77.046875 79.77734375 77.046875 82.5 77 C83.39589844 76.97421875 84.29179687 76.9484375 85.21484375 76.921875 C85.98957031 77.03015625 86.76429688 77.1384375 87.5625 77.25 C90.78125548 82.07813321 90.85141539 86.58330185 89.9375 92.1875 C87.93680148 100.87474356 82.8894093 107.2428561 75.5625 112.25 C68.86397425 116.02222542 62.30677914 115.72390447 54.75390625 115.76171875 C53.41867951 115.77858663 52.08346845 115.79673968 50.74827576 115.81611633 C47.25494283 115.86339432 43.76167348 115.89334632 40.26812744 115.91955566 C36.6949 115.94947418 33.12189115 115.99596533 29.54882812 116.04101562 C22.55351045 116.12679538 15.55811978 116.19425248 8.5625 116.25 C8.38074219 117.18972656 8.38074219 117.18972656 8.1953125 118.1484375 C8.02773437 118.96570313 7.86015625 119.78296875 7.6875 120.625 C7.52507812 121.43710938 7.36265625 122.24921875 7.1953125 123.0859375 C6.5625 125.25 6.5625 125.25 4.5625 127.25 C-2.74184783 127.71376812 -2.74184783 127.71376812 -6.4375 125.25 C-6.81150786 122.92284 -7.14514733 120.58882138 -7.4375 118.25 C-9.40285717 115.83877632 -9.40285717 115.83877632 -13.1328125 116.0546875 C-14.60951668 116.0661291 -16.08611801 116.09210093 -17.5625 116.125 C-20.16125 116.16625 -22.76 116.2075 -25.4375 116.25 C-25.4375 124.5 -25.4375 132.75 -25.4375 141.25 C-26.0975 141.58 -26.7575 141.91 -27.4375 142.25 C-27.93378906 141.81429687 -28.43007812 141.37859375 -28.94140625 140.9296875 C-33.41569019 137.00726021 -37.91314042 133.11455714 -42.4375 129.25 C-42.86160156 129.68570313 -43.28570312 130.12140625 -43.72265625 130.5703125 C-47.78985627 134.70008483 -51.99213788 138.53041129 -56.4375 142.25 C-57.0975 141.92 -57.7575 141.59 -58.4375 141.25 C-58.9325 128.875 -58.9325 128.875 -59.4375 116.25 C-63.0675 115.59 -66.6975 114.93 -70.4375 114.25 C-79.40885072 110.69531386 -83.09513282 105.71282038 -87.23828125 97.28515625 C-89.81455184 90.76475804 -89.59787711 84.16973744 -89.60546875 77.26171875 C-89.60879715 76.2039473 -89.61212555 75.14617584 -89.61555481 74.05635071 C-89.62060624 71.8231347 -89.62296369 69.58991117 -89.62280273 67.35668945 C-89.62498575 63.95967008 -89.64315119 60.56297747 -89.66210938 57.16601562 C-89.66504445 54.98958444 -89.66702848 52.81315171 -89.66796875 50.63671875 C-89.67515427 49.63017746 -89.68233978 48.62363617 -89.68974304 47.58659363 C-89.65657638 37.22714159 -88.04511519 28.51302621 -81.4375 20.25 C-70.29393208 10.58160923 -57.06526 11.08892693 -43.0625 11.25 C-31.48830804 11.32343395 -19.98946845 10.93674122 -8.4375 10.25 C-8.24414062 9.69570313 -8.05078125 9.14140625 -7.8515625 8.5703125 C-7.59117187 7.84585938 -7.33078125 7.12140625 -7.0625 6.375 C-6.67964844 5.29605469 -6.67964844 5.29605469 -6.2890625 4.1953125 C-4.75547896 0.69198864 -3.84833567 0.27987896 0 0 Z " fill="#314734" transform="translate(147.4375,41.75)"/>
<path d="M0 0 C1.04169846 -0.00708481 2.08339691 -0.01416962 3.15666199 -0.02146912 C4.29908356 -0.0189917 5.44150513 -0.01651428 6.61854553 -0.01396179 C7.82200119 -0.01907272 9.02545685 -0.02418365 10.26538086 -0.02944946 C13.56710208 -0.0409798 16.86857252 -0.04341714 20.17029643 -0.04088616 C22.92630835 -0.03981704 25.68229706 -0.04469832 28.43830401 -0.04949158 C34.94013391 -0.06059002 41.44190605 -0.06102234 47.94374084 -0.05497742 C54.65175735 -0.0489367 61.35956415 -0.0612502 68.06754488 -0.08254749 C73.82644486 -0.10015938 79.58527808 -0.1061655 85.34420401 -0.10290974 C88.78389884 -0.10109602 92.22344409 -0.10374169 95.66311455 -0.11762428 C99.49860246 -0.13252491 103.33382301 -0.12323607 107.16932678 -0.11161804 C108.87992279 -0.12308365 108.87992279 -0.12308365 110.62507629 -0.13478088 C112.19185371 -0.12425941 112.19185371 -0.12425941 113.7902832 -0.11352539 C114.69711822 -0.11369313 115.60395323 -0.11386087 116.53826809 -0.1140337 C119.470919 0.3400104 120.8480149 1.19503706 122.95863342 3.26069641 C123.39613342 6.32319641 123.39613342 6.32319641 122.95863342 9.26069641 C119.66770995 11.45464539 118.69887611 11.51281238 114.87930298 11.52139282 C113.30413406 11.53202003 113.30413406 11.53202003 111.69714355 11.54286194 C110.54537125 11.54038452 109.39359894 11.5379071 108.20692444 11.53535461 C106.99371521 11.54046555 105.78050598 11.54557648 104.53053284 11.55084229 C101.20195364 11.5623729 97.87362319 11.56480992 94.54504132 11.56227899 C91.76666153 11.56120989 88.98830475 11.56609106 86.20992988 11.57088441 C79.65536241 11.58198298 73.10085224 11.58241508 66.54627991 11.57637024 C59.78373249 11.5703295 53.02139308 11.58264306 46.25888115 11.60394031 C40.45327253 11.62155188 34.64773015 11.62755837 28.84209579 11.62430257 C25.37445575 11.6224888 21.90696409 11.62513501 18.43934822 11.63901711 C14.57272796 11.65391707 10.70637293 11.64462917 6.83973694 11.63301086 C5.68998886 11.6406546 4.54024078 11.64829834 3.35565186 11.65617371 C2.30271942 11.64915939 1.24978699 11.64214508 0.16494751 11.63491821 C-0.74926185 11.63508595 -1.6634712 11.6352537 -2.60538387 11.63542652 C-5.48700561 11.19214323 -6.87874985 10.16761968 -9.04136658 8.26069641 C-8.72886658 5.38569641 -8.72886658 5.38569641 -8.04136658 2.26069641 C-4.75906948 0.07249835 -3.8059087 0.0086193 0 0 Z " fill="#5ED870" transform="translate(94.04136657714844,107.73930358886719)"/>
<path d="M0 0 C1.5774424 -0.00639748 1.5774424 -0.00639748 3.18675232 -0.01292419 C4.92451683 -0.01224442 4.92451683 -0.01224442 6.6973877 -0.0115509 C7.91366348 -0.01490952 9.12993927 -0.01826813 10.3830719 -0.02172852 C13.72390933 -0.02961582 17.06468463 -0.03290693 20.40552711 -0.0335443 C23.19149469 -0.03449266 25.97745627 -0.03817001 28.76342154 -0.0417164 C35.33369849 -0.04986361 41.90396174 -0.05230035 48.47424316 -0.05158997 C55.26005103 -0.05098873 62.04577952 -0.06154896 68.83156729 -0.07733363 C74.65155205 -0.09039107 80.4715108 -0.09577464 86.29151011 -0.09513456 C89.77025039 -0.09487909 93.24892013 -0.09775723 96.72764587 -0.10831261 C100.60431042 -0.11975412 104.48086523 -0.11525782 108.35754395 -0.10920715 C110.09530846 -0.11763641 110.09530846 -0.11763641 111.86817932 -0.12623596 C112.91980759 -0.12204147 113.97143585 -0.11784698 115.05493164 -0.11352539 C115.9722834 -0.11407016 116.88963516 -0.11461493 117.83478546 -0.1151762 C120.02746582 0.13371277 120.02746582 0.13371277 122.02746582 2.13371277 C122.15246582 5.25871277 122.15246582 5.25871277 122.02746582 8.13371277 C118.87481212 9.97815145 116.57653431 10.38460323 112.94177246 10.38768005 C111.91552765 10.3933197 110.88928284 10.39895935 109.8319397 10.4047699 C108.71181488 10.40072144 107.59169006 10.39667297 106.43762207 10.39250183 C104.66148026 10.39775879 104.66148026 10.39775879 102.84945679 10.40312195 C99.60567164 10.41041507 96.36204975 10.408707 93.11826706 10.40236378 C89.72219247 10.3972972 86.32612873 10.40199706 82.93005371 10.40513611 C77.22715296 10.40877383 71.52430402 10.40398174 65.82141113 10.39445496 C59.22986098 10.38357075 52.63843455 10.38709647 46.0468874 10.39810777 C40.38563383 10.40718617 34.72441749 10.40846322 29.06315899 10.40323043 C25.68276123 10.40011376 22.30242161 10.39969304 18.92202759 10.40630341 C15.15370261 10.41137075 11.3856167 10.40365513 7.61730957 10.39250183 C6.49718475 10.39655029 5.37705994 10.40059875 4.22299194 10.4047699 C2.68362473 10.39631042 2.68362473 10.39631042 1.11315918 10.38768005 C0.22237167 10.386926 -0.66841583 10.38617195 -1.5861969 10.38539505 C-4.13546427 10.11652885 -5.77446141 9.41968035 -7.97253418 8.13371277 C-7.71692095 5.79059147 -7.37982646 3.45527874 -6.97253418 1.13371277 C-4.47584115 -0.11463374 -2.79433264 0.00510477 0 0 Z " fill="#5CDA6B" transform="translate(93.9725341796875,91.86628723144531)"/>
<path d="M0 0 C0 0.66 0 1.32 0 2 C-2.31 2.33 -4.62 2.66 -7 3 C-6.67 4.65 -6.34 6.3 -6 8 C-5.36278078 7.99907821 -4.72556156 7.99815641 -4.06903267 7.99720669 C11.42036035 7.97514324 26.90974793 7.95858443 42.39915276 7.94818783 C49.88964273 7.94302676 57.38012222 7.93598765 64.87060547 7.92456055 C71.39764924 7.91460795 77.92468542 7.90814519 84.45173657 7.90591151 C87.90924908 7.90460538 91.36673988 7.90152571 94.82424545 7.89426994 C98.67954675 7.88624466 102.53482661 7.88600924 106.39013672 7.88647461 C107.54243774 7.88287933 108.69473877 7.87928406 109.88195801 7.87557983 C111.45111465 7.87764183 111.45111465 7.87764183 113.05197144 7.87974548 C113.96454649 7.87882369 114.87712154 7.8779019 115.81735039 7.87695217 C118 8 118 8 120 9 C119.67 7.02 119.34 5.04 119 3 C117.95430344 3.02212303 117.95430344 3.02212303 116.88748169 3.04469299 C110.32480026 3.18261725 103.76203948 3.31558795 97.19914436 3.4429636 C93.82491975 3.50862772 90.4507566 3.57622188 87.07666016 3.64819336 C83.19962343 3.72994239 79.32250733 3.80508895 75.4453125 3.87890625 C73.6233989 3.91945885 73.6233989 3.91945885 71.76467896 3.96083069 C70.08316238 3.99097511 70.08316238 3.99097511 68.36767578 4.02172852 C66.88208664 4.05170677 66.88208664 4.05170677 65.3664856 4.08229065 C63 4 63 4 61 3 C59.09091814 2.8800592 57.17777752 2.82268712 55.26513672 2.79467773 C54.06404266 2.77473251 52.86294861 2.75478729 51.62545776 2.73423767 C50.32335358 2.71752518 49.02124939 2.70081268 47.6796875 2.68359375 C46.33732462 2.66302375 44.99496821 2.64202727 43.65261841 2.62062073 C40.11811562 2.56540469 36.58355443 2.51599342 33.0489502 2.46777344 C29.44273678 2.41755496 25.83660828 2.36187071 22.23046875 2.30664062 C15.15371951 2.19906483 8.07689416 2.09761858 1 2 C1 1.34 1 0.68 1 0 C16.31616766 -0.0700716 31.63232792 -0.1229791 46.94861984 -0.15543652 C54.0602021 -0.17090744 61.17168478 -0.19200115 68.28320312 -0.22631836 C75.14314979 -0.25940581 82.0029928 -0.27684164 88.86301422 -0.28463173 C91.48334636 -0.29018499 94.10367269 -0.3010288 96.72396088 -0.31719017 C100.38738867 -0.33889161 104.05038571 -0.34196991 107.71386719 -0.34057617 C109.34737625 -0.35675491 109.34737625 -0.35675491 111.0138855 -0.3732605 C112.01225433 -0.36913651 113.01062317 -0.36501251 114.03924561 -0.36076355 C114.90573101 -0.36352893 115.77221642 -0.36629431 116.66495895 -0.36914349 C119.54555546 0.08624613 120.91917808 0.97786975 123 3 C123.4375 6.0625 123.4375 6.0625 123 9 C119.70907653 11.19394898 118.74024268 11.25211597 114.92066956 11.26069641 C113.34550064 11.27132362 113.34550064 11.27132362 111.73851013 11.28216553 C110.58673782 11.27968811 109.43496552 11.27721069 108.24829102 11.2746582 C107.03508179 11.27976913 105.82187256 11.28488007 104.57189941 11.29014587 C101.24332021 11.30167649 97.91498977 11.30411351 94.5864079 11.30158257 C91.8080281 11.30051348 89.02967133 11.30539465 86.25129646 11.310188 C79.69672898 11.32128657 73.14221881 11.32171867 66.58764648 11.31567383 C59.82509907 11.30963309 53.06275966 11.32194665 46.30024773 11.3432439 C40.49463911 11.36085547 34.68909672 11.36686196 28.88346237 11.36360615 C25.41582233 11.36179238 21.94833066 11.3644386 18.4807148 11.37832069 C14.61409454 11.39322066 10.7477395 11.38393276 6.88110352 11.37231445 C5.73135544 11.37995819 4.58160736 11.38760193 3.39701843 11.39547729 C2.344086 11.38846298 1.29115356 11.38144867 0.20631409 11.3742218 C-0.70789527 11.37438954 -1.62210463 11.37455729 -2.5640173 11.37473011 C-5.44563903 10.93144682 -6.83738328 9.90692327 -9 8 C-8.6875 5.125 -8.6875 5.125 -8 2 C-4.77208445 -0.1519437 -3.71599191 -0.20086443 0 0 Z " fill="#72B97B" transform="translate(94,108)"/>
<path d="M0 0 C1.5774424 -0.00639748 1.5774424 -0.00639748 3.18675232 -0.01292419 C4.92451683 -0.01224442 4.92451683 -0.01224442 6.6973877 -0.0115509 C7.91366348 -0.01490952 9.12993927 -0.01826813 10.3830719 -0.02172852 C13.72390933 -0.02961582 17.06468463 -0.03290693 20.40552711 -0.0335443 C23.19149469 -0.03449266 25.97745627 -0.03817001 28.76342154 -0.0417164 C35.33369849 -0.04986361 41.90396174 -0.05230035 48.47424316 -0.05158997 C55.26005103 -0.05098873 62.04577952 -0.06154896 68.83156729 -0.07733363 C74.65155205 -0.09039107 80.4715108 -0.09577464 86.29151011 -0.09513456 C89.77025039 -0.09487909 93.24892013 -0.09775723 96.72764587 -0.10831261 C100.60431042 -0.11975412 104.48086523 -0.11525782 108.35754395 -0.10920715 C110.09530846 -0.11763641 110.09530846 -0.11763641 111.86817932 -0.12623596 C112.91980759 -0.12204147 113.97143585 -0.11784698 115.05493164 -0.11352539 C115.9722834 -0.11407016 116.88963516 -0.11461493 117.83478546 -0.1151762 C120.02746582 0.13371277 120.02746582 0.13371277 122.02746582 2.13371277 C122.15246582 5.25871277 122.15246582 5.25871277 122.02746582 8.13371277 C118.87481212 9.97815145 116.57653431 10.38460323 112.94177246 10.38768005 C111.91552765 10.3933197 110.88928284 10.39895935 109.8319397 10.4047699 C108.71181488 10.40072144 107.59169006 10.39667297 106.43762207 10.39250183 C104.66148026 10.39775879 104.66148026 10.39775879 102.84945679 10.40312195 C99.60567164 10.41041507 96.36204975 10.408707 93.11826706 10.40236378 C89.72219247 10.3972972 86.32612873 10.40199706 82.93005371 10.40513611 C77.22715296 10.40877383 71.52430402 10.40398174 65.82141113 10.39445496 C59.22986098 10.38357075 52.63843455 10.38709647 46.0468874 10.39810777 C40.38563383 10.40718617 34.72441749 10.40846322 29.06315899 10.40323043 C25.68276123 10.40011376 22.30242161 10.39969304 18.92202759 10.40630341 C15.15370261 10.41137075 11.3856167 10.40365513 7.61730957 10.39250183 C6.49718475 10.39655029 5.37705994 10.40059875 4.22299194 10.4047699 C2.68362473 10.39631042 2.68362473 10.39631042 1.11315918 10.38768005 C0.22237167 10.386926 -0.66841583 10.38617195 -1.5861969 10.38539505 C-4.13546427 10.11652885 -5.77446141 9.41968035 -7.97253418 8.13371277 C-7.71692095 5.79059147 -7.37982646 3.45527874 -6.97253418 1.13371277 C-4.47584115 -0.11463374 -2.79433264 0.00510477 0 0 Z M-4.97253418 2.13371277 C-4.97253418 4.11371277 -4.97253418 6.09371277 -4.97253418 8.13371277 C1.19802262 9.23601073 7.1980565 9.23858149 13.45471191 9.17131042 C14.58554199 9.16330917 15.71637207 9.15530792 16.88146973 9.14706421 C20.60467801 9.11926965 24.32776593 9.08376783 28.05090332 9.04777527 C30.63924903 9.02600109 33.2275975 9.00455176 35.81594849 8.9834137 C41.2310553 8.93798232 46.64611022 8.88886414 52.06115723 8.83683777 C58.32725965 8.77669767 64.5933924 8.72397136 70.85959184 8.67506945 C76.89045351 8.62780267 82.92125094 8.57497072 88.95204544 8.51971054 C91.51900613 8.49674425 94.08598034 8.47524327 96.65296555 8.45520401 C100.22757034 8.42656801 103.8020572 8.39161537 107.37658691 8.35490417 C108.44667999 8.34757767 109.51677307 8.34025116 110.61929321 8.33270264 C112.07024384 8.31585167 112.07024384 8.31585167 113.55050659 8.29866028 C114.39591696 8.29090891 115.24132732 8.28315754 116.11235619 8.27517128 C118.03621501 8.34266275 118.03621501 8.34266275 119.02746582 7.13371277 C119.02746582 5.48371277 119.02746582 3.83371277 119.02746582 2.13371277 C78.10746582 2.13371277 37.18746582 2.13371277 -4.97253418 2.13371277 Z " fill="#66B86A" transform="translate(93.9725341796875,91.86628723144531)"/>
<path d="M0 0 C41.58 0 83.16 0 126 0 C126 0.33 126 0.66 126 1 C85.08 1 44.16 1 2 1 C2.33 2.65 2.66 4.3 3 6 C4.65 6.33 6.3 6.66 8 7 C8 7.33 8 7.66 8 8 C1.84765625 8.09765625 1.84765625 8.09765625 0 8 C-0.33 7.67 -0.66 7.34 -1 7 C-0.67 4.69 -0.34 2.38 0 0 Z " fill="#62C86E" transform="translate(87,93)"/>
<path d="M0 0 C16.26342503 -0.04667541 32.52682841 -0.08196691 48.79030418 -0.10362434 C56.34134533 -0.11394656 63.89234491 -0.12802488 71.44335938 -0.15087891 C78.02314106 -0.17078393 84.60289266 -0.18370956 91.18270361 -0.18817699 C94.66819014 -0.19078929 98.15359055 -0.19694878 101.63904953 -0.21146011 C105.52549632 -0.22751037 109.41185809 -0.22798155 113.29833984 -0.22705078 C114.45999161 -0.23424133 115.62164337 -0.24143188 116.8184967 -0.24884033 C117.87301529 -0.246091 118.92753387 -0.24334167 120.01400757 -0.24050903 C120.93395697 -0.24235262 121.85390636 -0.24419621 122.80173302 -0.24609566 C125 0 125 0 127 2 C127.125 5.125 127.125 5.125 127 8 C125.35 8.33 123.7 8.66 122 9 C122.66 6.36 123.32 3.72 124 1 C83.08 1 42.16 1 0 1 C0 0.67 0 0.34 0 0 Z " fill="#73BC7C" transform="translate(89,92)"/>
<path d="M0 0 C0.99 0.33 1.98 0.66 3 1 C4 4 4 4 3 7 C-25.71 7 -54.42 7 -84 7 C-84 6.67 -84 6.34 -84 6 C-75.87049645 5.86771612 -67.74096675 5.73722206 -59.6114006 5.60884857 C-55.83418143 5.54914999 -52.05697304 5.48889544 -48.27978516 5.42724609 C-31.85285183 5.15952486 -15.42977909 4.90942235 1 5 C0.505 2.525 0.505 2.525 0 0 Z " fill="#64D171" transform="translate(211,110)"/>
<path d="M0 0 C2.14173568 -0.00982335 4.28255605 -0.04097764 6.42407227 -0.07226562 C7.79060309 -0.07878649 9.15714068 -0.08404054 10.52368164 -0.08789062 C11.75578369 -0.09723633 12.98788574 -0.10658203 14.25732422 -0.11621094 C17.31665039 0.24023438 17.31665039 0.24023438 19.24121094 1.76074219 C19.77355347 2.49309082 19.77355347 2.49309082 20.31665039 3.24023438 C19.15206299 3.25481689 17.98747559 3.26939941 16.78759766 3.28442383 C12.43182977 3.34276749 8.07655948 3.41999585 3.72119141 3.50268555 C1.84269335 3.53576622 -0.03590007 3.56384964 -1.91455078 3.58666992 C-4.6282585 3.62052823 -7.34110537 3.67285653 -10.05444336 3.72851562 C-11.29719276 3.73810051 -11.29719276 3.73810051 -12.56504822 3.74787903 C-17.71070311 3.8751725 -21.94880729 4.75584126 -26.76014709 6.60197449 C-28.68334961 7.24023438 -28.68334961 7.24023438 -31.68334961 7.24023438 C-24.06442233 -1.55083556 -10.67196984 0.02967527 0 0 Z " fill="#2B392B" transform="translate(102.683349609375,52.759765625)"/>
<path d="M0 0 C0.71285156 0.20496094 1.42570312 0.40992188 2.16015625 0.62109375 C8.53013973 2.44497758 8.53013973 2.44497758 15.0625 3.4375 C18 4 18 4 19.17578125 5.72802734 C20.10873338 8.29972537 20.199847 10.18474587 20.125 12.9140625 C20.10953125 13.83960938 20.0940625 14.76515625 20.078125 15.71875 C20.05234375 16.6778125 20.0265625 17.636875 20 18.625 C19.94910319 20.53363036 19.9069951 22.44252173 19.875 24.3515625 C19.85179688 25.19541504 19.82859375 26.03926758 19.8046875 26.90869141 C19.79629929 29.22182645 19.79629929 29.22182645 22 31 C20.02 31.99 20.02 31.99 18 33 C16.25493385 31.25493385 16.76717216 28.80960857 16.68359375 26.43359375 C16.64169922 25.30888672 16.59980469 24.18417969 16.55664062 23.02539062 C16.51732422 21.84138672 16.47800781 20.65738281 16.4375 19.4375 C16.39431641 18.24962891 16.35113281 17.06175781 16.30664062 15.83789062 C16.20016454 12.89205216 16.09815159 9.9461257 16 7 C15.26394531 6.87882813 14.52789062 6.75765625 13.76953125 6.6328125 C12.79371094 6.46523437 11.81789063 6.29765625 10.8125 6.125 C9.84957031 5.96257812 8.88664062 5.80015625 7.89453125 5.6328125 C5.08967396 5.01960483 2.62775253 4.14333657 0 3 C0 2.01 0 1.02 0 0 Z " fill="#2A372B" transform="translate(72,151)"/>
<path d="M0 0 C0.33 0 0.66 0 1 0 C2.83049259 34.43069393 2.83049259 34.43069393 0 47 C-0.33 47 -0.66 47 -1 47 C-1.02529825 40.62793828 -1.04284496 34.25588946 -1.05493164 27.88378906 C-1.05996891 25.71483883 -1.06679891 23.545892 -1.07543945 21.37695312 C-1.08753151 18.26431437 -1.09323428 15.1517204 -1.09765625 12.0390625 C-1.10281754 11.065065 -1.10797882 10.0910675 -1.11329651 9.08755493 C-1.11337204 8.18677216 -1.11344757 7.28598938 -1.11352539 6.35791016 C-1.115746 5.56293121 -1.11796661 4.76795227 -1.12025452 3.94888306 C-1 2 -1 2 0 0 Z " fill="#2E382D" transform="translate(60,80)"/>
<path d="M0 0 C3.5625 0.25 3.5625 0.25 6.5625 2.25 C7.328125 4.125 7.328125 4.125 7.8125 6.25 C7.98265625 6.95125 8.1528125 7.6525 8.328125 8.375 C8.5625 10.25 8.5625 10.25 7.5625 12.25 C8.5525 12.25 9.5425 12.25 10.5625 12.25 C10.5625 12.91 10.5625 13.57 10.5625 14.25 C8.75 14.1875 8.75 14.1875 6.5625 13.25 C6.129375 12.13625 5.69625 11.0225 5.25 9.875 C3.43791979 5.95555005 3.43791979 5.95555005 -0.125 4.3125 C-1.218125 3.961875 -2.31125 3.61125 -3.4375 3.25 C-4.0975 6.55 -4.7575 9.85 -5.4375 13.25 C-6.4275 13.58 -7.4175 13.91 -8.4375 14.25 C-8.128125 13.755 -7.81875 13.26 -7.5 12.75 C-6.48433875 10.36020883 -6.1926529 8.67652904 -5.9375 6.125 C-5.30408237 1.2160134 -4.97051342 0.36149188 0 0 Z " fill="#313F32" transform="translate(147.4375,41.75)"/>
<path d="M0 0 C0 0.66 0 1.32 0 2 C-4.16153651 2.93634572 -7.51218444 2.82806845 -11.71142578 2.25808716 C-15.85854372 1.79040825 -20.01789636 1.76108274 -24.1875 1.68359375 C-25.13061035 1.66281265 -26.0737207 1.64203156 -27.04541016 1.62062073 C-30.03020608 1.55572915 -33.01508286 1.49652379 -36 1.4375 C-38.0351643 1.39425721 -40.0703207 1.35064117 -42.10546875 1.30664062 C-47.07023163 1.20011051 -52.03507507 1.09867661 -57 1 C-57 0.67 -57 0.34 -57 0 C-49.52537889 -0.16827952 -42.05061209 -0.32816002 -34.57568359 -0.48217773 C-32.03234785 -0.53557642 -29.48905186 -0.59090411 -26.94580078 -0.64819336 C-23.29207936 -0.73016331 -19.6382716 -0.80521541 -15.984375 -0.87890625 C-14.84570984 -0.90594131 -13.70704468 -0.93297638 -12.53387451 -0.96083069 C-10.94267792 -0.99097511 -10.94267792 -0.99097511 -9.31933594 -1.02172852 C-8.38667908 -1.04171402 -7.45402222 -1.06169952 -6.49310303 -1.08229065 C-4.16393489 -1.00541105 -2.22493227 -0.66531754 0 0 Z " fill="#4D5A4D" transform="translate(220,130)"/>
<path d="M0 0 C0 0.99 0 1.98 0 3 C-7.22625204 3.19326436 -14.45276627 3.37075091 -21.6796875 3.53710938 C-24.13973831 3.5956201 -26.59970498 3.65778431 -29.05957031 3.72363281 C-32.5890369 3.81748648 -36.1185945 3.89833002 -39.6484375 3.9765625 C-40.75367767 4.00875885 -41.85891785 4.0409552 -42.99765015 4.0741272 C-44.52901108 4.10438492 -44.52901108 4.10438492 -46.09130859 4.13525391 C-46.99287689 4.15746002 -47.89444519 4.17966614 -48.82333374 4.20254517 C-51 4 -51 4 -53 2 C-51.42085815 1.96241577 -51.42085815 1.96241577 -49.80981445 1.92407227 C-45.84178903 1.82871659 -41.87388763 1.72882837 -37.90600586 1.62768555 C-36.20030654 1.58481426 -34.49457732 1.5431142 -32.78881836 1.50268555 C-23.65304968 1.28535889 -14.56393857 0.99992966 -5.45776367 0.19897461 C-3 0 -3 0 0 0 Z " fill="#68CF78" transform="translate(208,108)"/>
<path d="M0 0 C3.33727786 1.17255709 5.77437487 2.18868404 8 5 C8 5.66 8 6.32 8 7 C8.99 7 9.98 7 11 7 C12.6875 8.375 12.6875 8.375 14 10 C14 10.66 14 11.32 14 12 C14.66 12 15.32 12 16 12 C16 12.99 16 13.98 16 15 C11.56085003 14.5897468 9.24474422 11.51058171 6.375 8.4375 C4.61927906 6.57320158 2.84611367 4.77871587 1 3 C0.34 3 -0.32 3 -1 3 C-0.67 2.01 -0.34 1.02 0 0 Z " fill="#2A372B" transform="translate(104,167)"/>
<path d="M0 0 C6.27 0 12.54 0 19 0 C19.66 1.32 20.32 2.64 21 4 C20.01 3.34 19.02 2.68 18 2 C15.22503673 1.85710797 12.58047807 1.81262458 9.8125 1.875 C7.234375 1.91625 4.65625 1.9575 2 2 C2 8.93 2 15.86 2 23 C1.67 23 1.34 23 1 23 C0.67 15.41 0.34 7.82 0 0 Z " fill="#454F45" transform="translate(120,156)"/>
<path d="M0 0 C2 2 2 2 2.1953125 4.21484375 C2.17210938 5.11332031 2.14890625 6.01179687 2.125 6.9375 C2.10953125 7.91460937 2.0940625 8.89171875 2.078125 9.8984375 C2.02604167 11.96614583 1.97395833 14.03385417 1.921875 16.1015625 C1.90640625 17.07867187 1.8909375 18.05578125 1.875 19.0625 C1.85179688 19.96097656 1.82859375 20.85945313 1.8046875 21.78515625 C1.7793746 24.20754748 1.7793746 24.20754748 4 26 C2.02 26.99 2.02 26.99 0 28 C-1 27 -1 27 -1.1328125 24.04296875 C-1.11646401 15.97499024 -0.83782588 8.0341517 0 0 Z " fill="#222E24" transform="translate(90,156)"/>
<path d="M0 0 C3.45826342 -0.05789006 6.91640293 -0.09355821 10.375 -0.125 C11.35984375 -0.14175781 12.3446875 -0.15851563 13.359375 -0.17578125 C14.77089844 -0.18544922 14.77089844 -0.18544922 16.2109375 -0.1953125 C17.51490479 -0.21102295 17.51490479 -0.21102295 18.84521484 -0.22705078 C21 0 21 0 23 2 C23.125 5.125 23.125 5.125 23 8 C21.35 8.33 19.7 8.66 18 9 C18.66 6.36 19.32 3.72 20 1 C13.4 1 6.8 1 0 1 C0 0.67 0 0.34 0 0 Z " fill="#68B573" transform="translate(193,92)"/>
<path d="M0 0 C0.66 0 1.32 0 2 0 C2.99 2.97 3.98 5.94 5 9 C7.97 9.495 7.97 9.495 11 10 C11 9.34 11 8.68 11 8 C11.66 8 12.32 8 13 8 C12.67 9.32 12.34 10.64 12 12 C8.7 12 5.4 12 2 12 C-0.35333796 7.29332409 -0.17102038 5.1306114 0 0 Z " fill="#2A3628" transform="translate(223,80)"/>
<path d="M0 0 C1.65 0.66 3.3 1.32 5 2 C5 2.33 5 2.66 5 3 C-5.23 3 -15.46 3 -26 3 C-26 2.67 -26 2.34 -26 2 C-24.8718689 1.96241577 -24.8718689 1.96241577 -23.72094727 1.92407227 C-20.33460804 1.80849486 -16.94857387 1.68559655 -13.5625 1.5625 C-11.78649414 1.50352539 -11.78649414 1.50352539 -9.97460938 1.44335938 C-8.84990234 1.40146484 -7.72519531 1.35957031 -6.56640625 1.31640625 C-5.52427979 1.27974854 -4.48215332 1.24309082 -3.40844727 1.20532227 C-1.0500174 1.26484659 -1.0500174 1.26484659 0 0 Z " fill="#233124" transform="translate(118,53)"/>
<path d="M0 0 C0.33 0 0.66 0 1 0 C1 5.61 1 11.22 1 17 C3.31 17.33 5.62 17.66 8 18 C8.33 18.66 8.66 19.32 9 20 C5.7 19.67 2.4 19.34 -1 19 C-0.67 12.73 -0.34 6.46 0 0 Z " fill="#3A483A" transform="translate(71,112)"/>
<path d="M0 0 C6.75 0.75 6.75 0.75 9 3 C9.125 6.125 9.125 6.125 9 9 C8.01 9 7.02 9 6 9 C5.67 7.02 5.34 5.04 5 3 C3.35 2.67 1.7 2.34 0 2 C0 1.34 0 0.68 0 0 Z " fill="#7AB97F" transform="translate(208,108)"/>
<path d="M0 0 C0.33 0 0.66 0 1 0 C1.33 5.94 1.66 11.88 2 18 C1.34 18.33 0.68 18.66 0 19 C-0.66 18.34 -1.32 17.68 -2 17 C-1.34 17 -0.68 17 0 17 C0 16.01 0 15.02 0 14 C-0.66 14 -1.32 14 -2 14 C-1.67 13.01 -1.34 12.02 -1 11 C-0.77820215 9.10787263 -0.59385985 7.21115528 -0.4375 5.3125 C-0.35371094 4.31863281 -0.26992187 3.32476562 -0.18359375 2.30078125 C-0.12300781 1.54152344 -0.06242187 0.78226563 0 0 Z " fill="#3A433B" transform="translate(120,165)"/>
<path d="M0 0 C0.33 0.66 0.66 1.32 1 2 C-0.24383703 5.73151108 -1.84347807 6.74534148 -5 9 C-5.99 9.33 -6.98 9.66 -8 10 C-6.5682479 4.98886765 -4.01554307 3.05530451 0 0 Z " fill="#3C493C" transform="translate(71,58)"/>
<path d="M0 0 C2.625 0.375 2.625 0.375 5 1 C4.67 1.66 4.34 2.32 4 3 C2.68 3 1.36 3 0 3 C-0.66 6.3 -1.32 9.6 -2 13 C-2.99 13.33 -3.98 13.66 -5 14 C-4.690625 13.505 -4.38125 13.01 -4.0625 12.5 C-3.04683875 10.11020883 -2.7551529 8.42652904 -2.5 5.875 C-2 2 -2 2 0 0 Z " fill="#203121" transform="translate(144,42)"/>
<path d="M0 0 C-1 3 -1 3 -2.625 4.1875 C-5.80382728 5.27499354 -8.66661533 5.1282071 -12 5 C-11 3 -11 3 -9.00390625 2.1484375 C-8.19824219 1.89320313 -7.39257812 1.63796875 -6.5625 1.375 C-5.75941406 1.11460937 -4.95632812 0.85421875 -4.12890625 0.5859375 C-2 0 -2 0 0 0 Z " fill="#2E382F" transform="translate(224,151)"/>
<path d="M0 0 C2.97 0 5.94 0 9 0 C9.33 1.98 9.66 3.96 10 6 C9.4225 5.319375 8.845 4.63875 8.25 3.9375 C6.23300656 1.74534618 6.23300656 1.74534618 3.9375 2.125 C1.74714634 3.05079157 1.74714634 3.05079157 -1 5 C-0.67 3.35 -0.34 1.7 0 0 Z " fill="#2A392B" transform="translate(226,120)"/>
<path d="M0 0 C0 0.66 0 1.32 0 2 C-4.62921525 3.0161692 -8.34462607 2.83796731 -13 2 C-9.55192297 -1.44807703 -4.50554126 -1.62199485 0 0 Z " fill="#475347" transform="translate(220,130)"/>
<path d="M0 0 C0.66 0.33 1.32 0.66 2 1 C2.625 3.5625 2.625 3.5625 3 6 C4.65 6.33 6.3 6.66 8 7 C8 7.33 8 7.66 8 8 C1.84765625 8.09765625 1.84765625 8.09765625 0 8 C-0.33 7.67 -0.66 7.34 -1 7 C-0.71269945 4.66055264 -0.38063221 2.3260857 0 0 Z " fill="#62B76E" transform="translate(87,93)"/>
<path d="M0 0 C0.99 0.33 1.98 0.66 3 1 C2.360625 1.598125 1.72125 2.19625 1.0625 2.8125 C-1.20310389 4.90810337 -1.20310389 4.90810337 -2 8 C-4.475 7.01 -4.475 7.01 -7 6 C-2.25 1.125 -2.25 1.125 0 0 Z " fill="#3C4D3E" transform="translate(159,131)"/>
<path d="M0 0 C0.99 0.33 1.98 0.66 3 1 C4.125 5.75 4.125 5.75 3 8 C3.99 8 4.98 8 6 8 C6 8.66 6 9.32 6 10 C4.125 9.875 4.125 9.875 2 9 C0.61849799 5.82254537 0 3.46877176 0 0 Z " fill="#243227" transform="translate(152,46)"/>
<path d="M0 0 C0.66 0.99 1.32 1.98 2 3 C1.34 3 0.68 3 0 3 C-0.33 4.32 -0.66 5.64 -1 7 C-1.99 7 -2.98 7 -4 7 C-4.33 5.35 -4.66 3.7 -5 2 C-3.35 2 -1.7 2 0 2 C0 1.34 0 0.68 0 0 Z " fill="#5AD762" transform="translate(94,108)"/>
<path d="M0 0 C4.875 0.875 4.875 0.875 6 2 C6.23192865 3.51469448 6.41215238 5.03754562 6.5625 6.5625 C6.64628906 7.38878906 6.73007813 8.21507812 6.81640625 9.06640625 C6.87699219 9.70449219 6.93757812 10.34257812 7 11 C6.34 11 5.68 11 5 11 C4.731875 9.741875 4.46375 8.48375 4.1875 7.1875 C3.40467463 4.00551199 2.74664072 1.99755689 0 0 Z " fill="#243326" transform="translate(137,155)"/>
<path d="M0 0 C0.33 0.66 0.66 1.32 1 2 C-0.4375 4.625 -0.4375 4.625 -2 7 C-2.99 6.67 -3.98 6.34 -5 6 C-5 5.34 -5 4.68 -5 4 C-3.37373596 2.61767557 -1.7074998 1.28062485 0 0 Z " fill="#2D392E" transform="translate(229,144)"/>
<path d="M0 0 C0.99 0 1.98 0 3 0 C2.34 1.32 1.68 2.64 1 4 C-1.64 4 -4.28 4 -7 4 C-7 3.67 -7 3.34 -7 3 C-5.02 3 -3.04 3 -1 3 C-0.67 2.01 -0.34 1.02 0 0 Z " fill="#414C42" transform="translate(151,165)"/>
</svg>
